<svg xmlns="http://www.w3.org/2000/svg" version="1.1" xmlns:xlink="http://www.w3.org/1999/xlink" xmlns:svgjs="http://svgjs.dev/svgjs" width="100%" height="100%" viewBox="0 0 1000 600"><rect width="1000" height="600" x="0" y="0" fill="#187bcd"/><g><rect width="333.3333333333333" height="333.3333333333333" rx="13.333333333333334" ry="13.333333333333334" y="211.86090323940238" fill="#ffff" transform="matrix(0.6591482471149753,0,0,0.6591482471149752,0,50.494210374876445)" x="189.6387176513672"/><path d="M360.34406246800756 318.65840904454166L355.537464213698 328.10095709442777Q354.5988976906672 329.63679322302374 353.5750069382699 330.40471128732173Q352.55111618587256 331.1726293516197 350.9299558279102 331.1726293516197L350.9299558279102 331.1726293516197Q349.1950298307926 331.1726293516197 346.8912756378986 329.40926194471325Q344.5875214450047 327.6743359475956 341.032345221403 325.5696716232234Q337.5056104075901 323.49344870863996 332.5568051043365 321.73008130173355Q327.5795583912941 319.99515530461593 320.52608876366827 319.99515530461593L320.52608876366827 319.99515530461593Q313.87079887308585 319.99515530461593 308.75134511109934 321.7869641213112Q303.6318913491129 323.57877293800647 300.1904807646664 326.6504451951983Q296.74907018022 329.7221174523902 295.0141441831023 333.874563281557Q293.2792181859847 338.0270091107238 293.2792181859847 342.8336073650333L293.2792181859847 342.8336073650333Q293.2792181859847 348.9769518794171 296.29400762359893 353.0156320694287Q299.3087970612132 357.0543122594402 304.28604377425563 359.9268946481105Q309.26329048729804 362.7994770367806 315.54884205062586 364.9041413611529Q321.8343936139537 367.00880568552503 328.4612420947473 369.2556770588413Q335.0596491657521 371.50254843215765 341.3452007290799 374.3182480012502Q347.6591937021966 377.13394757034274 352.6079990054502 381.42860044845366Q357.5852457184926 385.7232533265645 360.60003515610686 391.98036348010356Q363.61482459372115 398.23747363364254 363.61482459372115 407.33872476606297L363.61482459372115 407.33872476606297Q363.61482459372115 416.951921274682 360.34406246800756 425.3990199819597Q357.073300342294 433.84611868923736 350.7593073691773 440.10322884277645Q344.47375580584946 446.3603389963154 335.31562185385144 449.94395662970595Q326.1574879018534 453.5275742630965 314.46806847865093 453.5275742630965L314.46806847865093 453.5275742630965Q300.24736358424406 453.5275742630965 288.5295027512528 448.3512376815324Q276.7832005084727 443.1749010999683 268.5067502599279 434.35806406543605L268.5067502599279 434.35806406543605L274.22347362747945 424.94395742533874Q275.0482745113551 423.83474244357495 276.24281372248527 423.06682437927697Q277.4089115238266 422.298906314979 278.8309820132673 422.298906314979L278.8309820132673 422.298906314979Q280.9925291572171 422.298906314979 283.75134590673207 424.60266050787294Q286.510162656247 426.9064147007668 290.6626084854138 429.66523145028174Q294.8150543145806 432.4240481997967 300.7024261408651 434.72780239269065Q306.58979796714954 437.0315565855845 315.0937794940048 437.0315565855845L315.0937794940048 437.0315565855845Q322.1472491216307 437.0315565855845 327.69332403044933 435.09754071994524Q333.21095752947923 433.1350834445171 337.05054785096905 429.60834863070414Q340.89013817245893 426.0816138168912 342.93791967725355 421.1612499234265Q344.9857011820481 416.2408860299617 344.9857011820481 410.2113071547331L344.9857011820481 410.2113071547331Q344.9857011820481 403.55601726415074 341.97091174443386 399.2898057958287Q338.95612230681957 395.0520357372954 334.0357584133548 392.17945334862526Q329.11539451989006 389.306870959955 322.8298429565622 387.31597227473804Q316.51584998344555 385.3250735895211 309.9174429124407 383.22040926514893Q303.31903584143595 381.11574494077666 297.00504286831926 378.3569281912617Q290.71949130499144 375.59811144174677 285.7991274115267 371.18969292448065Q280.8787635180619 366.78127440721454 277.86397408044763 360.18286733620977Q274.8491846428334 353.584460265205 274.8491846428334 343.8574981174307L274.8491846428334 343.8574981174307Q274.8491846428334 336.06455183529573 277.86397408044763 328.81199233914816Q280.8787635180619 321.53099143321185 286.62392829540227 315.8995922950267Q292.36909307274266 310.26819315684156 300.81619178002035 306.8836653919727Q309.26329048729804 303.52757903689275 320.2132332559913 303.52757903689275L320.2132332559913 303.52757903689275Q332.4999222847589 303.52757903689275 342.6250641695766 307.3956107681714Q352.7786474641831 311.2920839092389 360.34406246800756 318.65840904454166L360.34406246800756 318.65840904454166ZM444.10401429606407 305.1487393948551L444.10401429606407 401.1953802516792Q444.10401429606407 413.48206928044675 441.0892248584498 423.20903142822107Q438.0459940110468 432.9359935759954 432.1586221847623 439.64816628615534Q426.2712503584779 446.3603389963154 417.68194460225607 449.94395662970595Q409.09263884603433 453.5275742630965 397.91516479903055 453.5275742630965L397.91516479903055 453.5275742630965Q387.98911278273454 453.5275742630965 377.23825988256294 450.65499187442634L377.23825988256294 450.65499187442634Q377.43734975108464 447.6686438466009 377.7502052587616 444.76762004814185Q378.0630607664385 441.838154839894 378.37591627411547 438.96557245122386L378.37591627411547 438.96557245122386Q378.57500614263716 437.2306464541062 379.6557797146121 436.1498728821313Q380.70811187679817 435.09754071994524 382.86965902074803 435.09754071994524L382.86965902074803 435.09754071994524Q384.71835065702095 435.09754071994524 387.79002291421284 436.0076658331872Q390.86169517140473 436.9177909464293 395.9811489333912 436.9177909464293L395.9811489333912 436.9177909464293Q402.72176305334006 436.9177909464293 408.01186527405946 434.87000944163464Q413.27352608498995 432.8222279368401 416.9140265379582 428.52757505872927Q420.5545269909263 424.23292218061835 422.431660036988 417.52074947045827Q424.33723449283855 410.8085767602982 424.33723449283855 401.5935599887226L424.33723449283855 401.5935599887226L424.33723449283855 305.1487393948551L444.10401429606407 305.1487393948551Z " fill="#187bcd" transform="matrix(0.6591482471149753,0,0,0.6591482471149752,0,50.494210374876445)"/><path d="M695.5754520546429 399.5756412085544L695.5754520546429 399.5756412085544Q696.8902473154479 399.5756412085544 697.955684854376 400.6410787474825L697.955684854376 400.6410787474825L704.144290133682 407.4190750057699Q696.9809228506758 415.7385553629321 686.7345873699203 420.38567654336333Q676.4882518891645 425.05546660760155 662.0481729041173 425.05546660760155L662.0481729041173 425.05546660760155Q649.3989357398217 425.05546660760155 639.107262491452 420.6803720328541Q628.8382581268895 416.3052774581067 621.5615464248484 408.43917477708413Q614.3075036066143 400.5730720960616 610.2951111727787 389.5559945658685Q606.3053876227498 378.5389170356755 606.3053876227498 365.3002888923983L606.3053876227498 365.3002888923983Q606.3053876227498 352.08432963292813 610.5898066622693 341.06725210273515Q614.8742257017889 330.05017457254206 622.6269839637765 322.1387341239055Q630.3797422257642 314.227293675269 641.1927998016944 309.8521991005216Q652.0058573776246 305.49977340958117 665.0631344504459 305.49977340958117L665.0631344504459 305.49977340958117Q677.9617293366184 305.49977340958117 687.3013094650947 309.4894969596099Q696.6408895935712 313.47922050963865 703.9176012956121 320.34789230315397L703.9176012956121 320.34789230315397L698.7717646714274 327.60193512138807Q698.2050425762529 328.4180149384394 697.4569694106225 328.96206814980695Q696.731565128799 329.48345247736756 695.3487632165732 329.48345247736756L695.3487632165732 329.48345247736756Q694.283325677645 329.48345247736756 693.1045437196819 328.7127104279302Q691.9030928779121 327.94196837849285 690.2709332438094 326.78585530433674Q688.6387736097067 325.6524111139877 686.4398918804295 324.33761585318274Q684.2410101511523 323.0454894761848 681.2260486048237 321.88937640202874Q678.2110870584952 320.75593221167964 674.1986946246594 319.9851901622423Q670.2089710746307 319.191779228998 664.972458915218 319.191779228998L664.972458915218 319.191779228998Q655.5875410191277 319.191779228998 647.8121138733329 322.4334296133963Q640.0140178437314 325.6524111139877 634.369465775793 331.61432755522384Q628.7475825916615 337.55357511265294 625.5966077424912 346.1224131916919Q622.4683017771276 354.691251270731 622.4683017771276 365.3002888923983L622.4683017771276 365.3002888923983Q622.4683017771276 376.2493597711704 625.5966077424912 384.8181978502094Q628.7475825916615 393.3870359292484 634.16544582153 399.3036146028706Q639.6059779352056 405.2201932764927 647.0187029400886 408.32583035804925Q654.4540968287786 411.4087985557987 663.0229349078176 411.4087985557987L663.0229349078176 411.4087985557987Q668.2367781834233 411.4087985557987 672.4078528039079 410.79673869301024Q676.5789274243925 410.1846788302217 680.1152732982816 408.8925524532238Q683.6742880559777 407.5777571924188 686.7345873699203 405.5828954174045Q689.7948866838627 403.58803364239003 692.9005237654192 400.79976093413137L692.9005237654192 400.79976093413137Q694.283325677645 399.5756412085544 695.5754520546429 399.5756412085544ZM756.1467095868976 339.77512572573715L756.1467095868976 339.77512572573715Q765.1915942258831 339.77512572573715 772.4909748117312 342.7900872720657Q779.8130242813863 345.80504881839425 784.9135231379571 351.3589253511047Q790.014021994528 356.9128018838151 792.7342880513658 364.7789045648378Q795.4772229920104 372.6450072458603 795.4772229920104 382.3699583990554L795.4772229920104 382.3699583990554Q795.4772229920104 392.1629162036714 792.7342880513658 399.98368111708004Q790.014021994528 407.8271149142956 784.9135231379571 413.3809914470061Q779.8130242813863 418.93486797971656 772.4909748117312 421.9044917584311Q765.1915942258831 424.87411553714566 756.1467095868976 424.87411553714566L756.1467095868976 424.87411553714566Q747.079156064105 424.87411553714566 739.779775478257 421.9044917584311Q732.4803948924089 418.93486797971656 727.3345582682241 413.3809914470061Q722.1887216440393 407.8271149142956 719.4231178195876 399.98368111708004Q716.6348451113288 392.1629162036714 716.6348451113288 382.3699583990554L716.6348451113288 382.3699583990554Q716.6348451113288 372.6450072458603 719.4231178195876 364.7789045648378Q722.1887216440393 356.9128018838151 727.3345582682241 351.3589253511047Q732.4803948924089 345.80504881839425 739.779775478257 342.7900872720657Q747.079156064105 339.77512572573715 756.1467095868976 339.77512572573715ZM756.1467095868976 413.5396736336549L756.1467095868976 413.5396736336549Q768.3879068426676 413.5396736336549 774.4178299353247 405.3335376955277Q780.4477530279818 397.1274017574004 780.4477530279818 382.4379650504763L780.4477530279818 382.4379650504763Q780.4477530279818 367.68052169213144 774.4178299353247 359.4290479863901Q768.3879068426676 351.2002431644558 756.1467095868976 351.2002431644558L756.1467095868976 351.2002431644558Q749.9354354237846 351.2002431644558 745.3563208947744 353.30844935850513Q740.7998752495711 355.43932443636135 737.7395759356286 359.4290479863901Q734.6792766216861 363.4414404202259 733.1604614066183 369.2673435586201Q731.6643150753575 375.0932466970143 731.6643150753575 382.4379650504763L731.6643150753575 382.4379650504763Q731.6643150753575 389.7826834039383 733.1604614066183 395.5859176585256Q734.6792766216861 401.3891519131129 737.7395759356286 405.3335376955277Q740.7998752495711 409.30059236174947 745.3563208947744 411.4087985557987Q749.9354354237846 413.5396736336549 756.1467095868976 413.5396736336549ZM880.2588484301214 423.74067134679666L871.6220036996613 423.74067134679666Q868.5163666181049 423.74067134679666 867.7002868010536 420.7257098004681L867.7002868010536 420.7257098004681L866.3854915402486 410.68339427397524Q861.080972729415 417.121357275158 854.2803075873205 420.9977364061519Q847.4569735614191 424.87411553714566 838.6387777605032 424.87411553714566L838.6387777605032 424.87411553714566Q831.543417128918 424.87411553714566 825.7401828743308 422.1538494803079Q819.9596175035505 419.4109145396632 815.8792184182938 414.10639572882945Q811.7988193330372 408.8018769179958 809.5999376037599 400.89043646935926Q807.3783869906758 392.9789960207227 807.3783869906758 382.6873227723532L807.3783869906758 382.6873227723532Q807.3783869906758 373.55176259813953 809.8266264418298 365.685659917117Q812.2748658929838 357.79688835228745 816.899318189608 352.01632298150713Q821.5011016024253 346.2130887269199 828.1204156740639 342.9034316911006Q834.7170608618954 339.59377465528127 843.1272167542855 339.59377465528127L843.1272167542855 339.59377465528127Q850.7212928296244 339.59377465528127 856.116487175686 342.17802740927715Q861.4890126379406 344.73961127946615 865.7280939098462 349.38673245989736L865.7280939098462 349.38673245989736L865.7280939098462 303.5275805183737L880.2588484301214 303.5275805183737L880.2588484301214 423.74067134679666ZM843.4672500113903 413.13163372512923L843.4672500113903 413.13163372512923Q850.5626106429755 413.13163372512923 855.9124672214232 409.8673144569239Q861.2396549160638 406.6029951887186 865.7280939098462 400.6410787474825L865.7280939098462 400.6410787474825L865.7280939098462 360.6531677119671Q861.7383703598174 355.28064224971246 856.9552358765443 353.10442940424224Q852.1947702770782 350.950885442579 846.391536022491 350.950885442579L846.391536022491 350.950885442579Q834.8077363971233 350.950885442579 828.5964622340105 359.17969026451334Q822.4078569547045 367.43116397025454 822.4078569547045 382.6873227723532L822.4078569547045 382.6873227723532Q822.4078569547045 390.7801142914455 823.7906588669305 396.5153418946118Q825.1734607791562 402.27323838158514 827.871057952187 405.99093532593014Q830.5686551252179 409.70863227027513 834.4903720238257 411.4087985557987Q838.3894200386264 413.13163372512923 843.4672500113903 413.13163372512923ZM937.3844356237146 339.77512572573715L937.3844356237146 339.77512572573715Q944.8198295124046 339.77512572573715 951.0991103269384 342.24603406069815Q957.3783911414723 344.73961127946615 961.9575056704826 349.43207022751125Q966.513951315686 354.12452917555646 969.0982040696817 361.0158698528788Q971.6597879398707 367.9298794140082 971.6597879398707 376.725406331117L971.6597879398707 376.725406331117Q971.6597879398707 380.1710766697782 970.9343836580473 381.3045208601273Q970.1863104924169 382.4379650504763 968.1461109497886 382.4379650504763L968.1461109497886 382.4379650504763L913.1513988340514 382.4379650504763Q913.3100810207003 390.28139884769195 915.2822739119077 396.08463310227916Q917.2317979193081 401.8651984730595 920.6547993741624 405.74157760405336Q924.0778008290165 409.61795673504713 928.8155975446757 411.54481185864057Q933.5533942603348 413.448998098427 939.424635166343 413.448998098427L939.424635166343 413.448998098427Q944.8878361638256 413.448998098427 948.8548908300473 412.202209489043Q952.8219454962691 410.93275199585213 955.6782248559488 409.45927454839824Q958.5345042156284 407.98579710094447 960.4386904554149 406.71633960775347Q962.3655455790083 405.4695509983696 963.7483474912342 405.4695509983696L963.7483474912342 405.4695509983696Q965.5391893119858 405.4695509983696 966.513951315686 406.85235291059536L966.513951315686 406.85235291059536L970.5943504009426 412.1568717214291Q967.9194221117187 415.42119098963445 964.1563873997599 417.82409267317445Q960.3933526878009 420.22699435671444 956.1089336482814 421.7911473393962Q951.8245146087619 423.332631438271 947.2680689635586 424.1033734877083Q942.6889544345484 424.87411553714566 938.200515440766 424.87411553714566L938.200515440766 424.87411553714566Q929.631677361727 424.87411553714566 922.4229723111068 421.995167293659Q915.1915983766798 419.09355016636545 909.9324173334601 413.494335866041Q904.6732362902404 407.9177904495236 901.7262813953328 399.66631674378226Q898.7793265004252 391.41484303804106 898.7793265004252 380.73779876495274L898.7793265004252 380.73779876495274Q898.7793265004252 372.07828515068576 901.431585905842 364.5748846105749Q904.0838453112589 357.071484070464 909.0709997487947 351.5629453053676Q914.0581541863307 346.05440654027103 921.221521469337 342.9034316911006Q928.40755763615 339.77512572573715 937.3844356237146 339.77512572573715ZM937.7244688808194 350.45216999882547L937.7244688808194 350.45216999882547Q927.183437910573 350.45216999882547 921.153514817916 356.52743085909646Q915.1009228414518 362.62536060317456 913.6501142778051 373.39308041149076L913.6501142778051 373.39308041149076L958.6025108670494 373.39308041149076Q958.6025108670494 368.3379193225339 957.2197089548235 364.12150693443533Q955.8369070425977 359.92776343014367 953.1393098695669 356.86746411620123Q950.4417126965361 353.8071648022587 946.5653335655422 352.129667400542Q942.6889544345484 350.45216999882547 937.7244688808194 350.45216999882547ZM1125.3321512673983 365.3002888923983L1125.3321512673983 365.3002888923983Q1125.3321512673983 378.4482415004475 1121.161076646914 389.21596130876384Q1117.012670910236 399.98368111708004 1109.4185948348972 407.6684327276467Q1101.8245187595585 415.33051545440645 1091.2154811378912 419.546927842505Q1080.6064435162239 423.74067134679666 1067.7078486300513 423.74067134679666L1067.7078486300513 423.74067134679666L1023.979571766384 423.74067134679666L1023.979571766384 306.79189978657905L1067.7078486300513 306.79189978657905Q1080.6064435162239 306.79189978657905 1091.2154811378912 311.0083121746776Q1101.8245187595585 315.2020556789692 1109.4185948348972 322.90947617334297Q1117.012670910236 330.6168966677166 1121.161076646914 341.4072853598398Q1125.3321512673983 352.175005168156 1125.3321512673983 365.3002888923983ZM1109.1012304615995 365.3002888923983L1109.1012304615995 365.3002888923983Q1109.1012304615995 354.5325690840821 1106.154275566692 346.05440654027103Q1103.2073206717844 337.55357511265294 1097.8347952095298 331.6823342066447Q1092.439600863468 325.8110933006365 1084.7775181367083 322.7054562190801Q1077.0927665261415 319.59981913752364 1067.7078486300513 319.59981913752364L1067.7078486300513 319.59981913752364L1039.893128198885 319.59981913752364L1039.893128198885 410.93275199585213L1067.7078486300513 410.93275199585213Q1077.0927665261415 410.93275199585213 1084.7775181367083 407.8271149142956Q1092.439600863468 404.72147783273914 1097.8347952095298 398.89557469434493Q1103.2073206717844 393.0470026721437 1106.154275566692 384.5688401283326Q1109.1012304615995 376.09067758452153 1109.1012304615995 365.3002888923983ZM1146.2328621374354 341.06725210273515L1160.7409477739034 341.06725210273515L1160.7409477739034 423.74067134679666L1146.2328621374354 423.74067134679666L1146.2328621374354 341.06725210273515ZM1164.0052670421087 315.1113801437413L1164.0052670421087 315.1113801437413Q1164.0052670421087 317.24225522159753 1163.1665183412504 319.0784348099631Q1162.305100756585 320.9146143983285 1160.8769610767454 322.3427540781684Q1159.4488213969055 323.7708937580082 1157.567304040926 324.5869735750595Q1155.6857866849466 325.40305339211085 1153.5775804908972 325.40305339211085L1153.5775804908972 325.40305339211085Q1151.446705413041 325.40305339211085 1149.6105258246755 324.5869735750595Q1147.77434623631 323.7708937580082 1146.3462065564702 322.3427540781684Q1144.9180668766303 320.9146143983285 1144.1019870595792 319.0784348099631Q1143.2859072425276 317.24225522159753 1143.2859072425276 315.1113801437413L1143.2859072425276 315.1113801437413Q1143.2859072425276 313.003173949692 1144.1019870595792 311.0763188260986Q1144.9180668766303 309.17213258631216 1146.3462065564702 307.7439929064723Q1147.77434623631 306.3158532266325 1149.6105258246755 305.49977340958117Q1151.446705413041 304.6836935925298 1153.5775804908972 304.6836935925298L1153.5775804908972 304.6836935925298Q1155.6857866849466 304.6836935925298 1157.567304040926 305.49977340958117Q1159.4488213969055 306.3158532266325 1160.8769610767454 307.7439929064723Q1162.305100756585 309.17213258631216 1163.1665183412504 311.0763188260986Q1164.0052670421087 313.003173949692 1164.0052670421087 315.1113801437413ZM1214.194175790766 339.68445019050927L1214.194175790766 339.68445019050927Q1219.5893701368275 339.68445019050927 1224.2818290848725 340.86323214847226Q1228.974288032918 342.04201410643526 1232.8053293962978 344.3315713709405L1232.8053293962978 344.3315713709405L1255.2475243652093 344.3315713709405L1255.2475243652093 349.726765717002Q1255.2475243652093 352.4243628900328 1251.8245229103552 353.14976717185624L1251.8245229103552 353.14976717185624L1242.4396050142648 354.4645624326611Q1245.2052088387165 359.7690812434948 1245.2052088387165 366.29771977990555L1245.2052088387165 366.29771977990555Q1245.2052088387165 372.32764287256254 1242.8929826904043 377.2694595424845Q1240.558087658285 382.2112762124065 1236.4323508054147 385.7022843186816Q1232.329282836351 389.21596130876384 1226.6393930007987 391.0974786647433Q1220.9721720490531 392.9789960207227 1214.194175790766 392.9789960207227L1214.194175790766 392.9789960207227Q1208.4136104199856 392.9789960207227 1203.2677737958006 391.59619410849683L1203.2677737958006 391.59619410849683Q1200.6608521579979 393.2283537425995 1199.300719129579 395.08720221477205Q1197.963254984967 396.9687195707515 1197.963254984967 398.75956139150304L1197.963254984967 398.75956139150304Q1197.963254984967 401.7065162864106 1200.320818900893 403.22533150147837Q1202.701051700626 404.72147783273914 1206.622768599234 405.3788754631416Q1210.5218166140348 406.036273093544 1215.5089710515706 406.1949552801929Q1220.4961254891066 406.3536374668418 1225.6646309970986 406.71633960775347Q1230.8558053888971 407.10171063247225 1235.8202909426261 407.98579710094447Q1240.807445380162 408.8925524532238 1244.72916227877 410.93275199585213Q1248.6508791773779 412.97295153848046 1251.0084430933036 416.55463517998345Q1253.3660070092299 420.15898770529355 1253.3660070092299 425.8715464246529L1253.3660070092299 425.8715464246529Q1253.3660070092299 431.17606523548653 1250.713747603813 436.1405507892155Q1248.061488198396 441.1277052267514 1243.0970026446673 445.0040843577453Q1238.1098482071313 448.88046348873905 1230.9238120403181 451.1926896370513Q1223.760444757312 453.52758466917027 1214.6928912345195 453.52758466917027L1214.6928912345195 453.52758466917027Q1205.6253377117268 453.52758466917027 1198.8246725696324 451.7367428484188Q1192.001338543731 449.9459010276673 1187.5128995499485 446.9082705975317Q1183.024460556166 443.8933090512032 1180.780241059275 439.9489232687884Q1178.536021562384 435.98186860256664 1178.536021562384 431.6521117954332L1178.536021562384 431.6521117954332Q1178.536021562384 425.5315131675482 1182.4124006933778 421.24709412802866Q1186.2887798243714 416.9626750885091 1193.066776082659 414.44642898593423L1193.066776082659 414.44642898593423Q1189.5530990925768 412.81426935183157 1187.4675617823345 410.0713344111868Q1185.4046933558993 407.328399470542 1185.4046933558993 402.7719538253387L1185.4046933558993 402.7719538253387Q1185.4046933558993 400.98111200458726 1186.0394221024949 399.0542568809938Q1186.6968197328972 397.1274017574004 1188.056952761316 395.2685532852278Q1189.3944169059282 393.3870359292484 1191.3439409133284 391.66420075991783Q1193.3161338045359 389.96403447439417 1195.9230554423386 388.6492392135893L1195.9230554423386 388.6492392135893Q1189.8024568144538 385.22623775873507 1186.3341175919854 379.55901680698975Q1182.8657783695173 373.8691269714373 1182.8657783695173 366.29771977990555L1182.8657783695173 366.29771977990555Q1182.8657783695173 360.24512780344145 1185.2006734016365 355.30331113351946Q1187.5128995499485 350.38416334740447 1191.6839741704332 346.91582412493636Q1195.8323799071109 343.44748490246815 1201.590276394084 341.5659675464887Q1207.3481728810575 339.68445019050927 1214.194175790766 339.68445019050927ZM1239.9913655631105 428.229110340579L1239.9913655631105 428.229110340579Q1239.9913655631105 425.12347325902255 1238.26853039378 423.241955903043Q1236.5683641082564 421.38310743087055 1233.621409213349 420.36300765955644Q1230.6971232022486 419.3429078882422 1226.8434129550617 418.84419244448867Q1223.0123715916818 418.345477000735 1218.7732903197762 418.1414570464722Q1214.5342090478705 417.93743709220934 1210.1137767055093 417.71074825413956Q1205.7160132469548 417.4613905322628 1201.726289696926 416.80399290186034L1201.726289696926 416.80399290186034Q1197.0564996326877 419.00287463113744 1194.1775513892012 422.1991872479219Q1191.2759342619074 425.3728309808993 1191.2759342619074 429.77059443945376L1191.2759342619074 429.77059443945376Q1191.2759342619074 432.5588671477124 1192.7040739417473 434.9617688312524Q1194.1322136215872 437.3646705147925 1197.0564996326877 439.1328434517371Q1200.0034545275953 440.8783475048746 1204.4465557537637 441.89844727618885Q1208.8896569799322 442.91854704750295 1214.9422489563963 442.91854704750295L1214.9422489563963 442.91854704750295Q1220.8134898624044 442.91854704750295 1225.4606110428356 441.85310950857485Q1230.107732223267 440.78767196964674 1233.3493826076653 438.8381479622463Q1236.5683641082564 436.88862395484585 1238.26853039378 434.1910267818151Q1239.9913655631105 431.4934296087843 1239.9913655631105 428.229110340579ZM1214.194175790766 383.3447204027556L1214.194175790766 383.3447204027556Q1218.6146081331274 383.3447204027556 1221.9922718203673 382.12060067717863Q1225.3926043914146 380.89648095160163 1227.6594927721128 378.6975992223244Q1229.949050036618 376.4987174930472 1231.1051631107741 373.43841817910464Q1232.2386073011232 370.3781188651622 1232.2386073011232 366.7057596884312L1232.2386073011232 366.7057596884312Q1232.2386073011232 359.11168361309234 1227.6368238883058 354.62324461931Q1223.0123715916818 350.1348056255277 1214.194175790766 350.1348056255277L1214.194175790766 350.1348056255277Q1205.4666555250778 350.1348056255277 1200.8648721122606 354.62324461931Q1196.2404198156364 359.11168361309234 1196.2404198156364 366.7057596884312L1196.2404198156364 366.7057596884312Q1196.2404198156364 370.3781188651622 1197.4418706574065 373.43841817910464Q1198.6206526153694 376.4987174930472 1200.9102098798749 378.6975992223244Q1203.1770982605728 380.89648095160163 1206.532093064006 382.12060067717863Q1209.8870878674393 383.3447204027556 1214.194175790766 383.3447204027556ZM1327.4705881742523 341.06725210273515L1327.4705881742523 347.27852626584803Q1327.4705881742523 348.8200103647228 1326.9038660790777 350.2481500445626Q1326.3371439839034 351.67628972440247 1325.430388631624 352.83240279855846L1325.430388631624 352.83240279855846L1280.7046808804496 412.4062294433059L1325.8384285401496 412.4062294433059L1325.8384285401496 423.74067134679666L1263.5670047223716 423.74067134679666L1263.5670047223716 417.71074825413956Q1263.5670047223716 416.64531071521145 1264.111057933739 415.21717103537156Q1264.6324422612995 413.7890313555318 1265.6072042649998 412.4742360947268L1265.6072042649998 412.4742360947268L1310.582269738051 352.4923695414538L1266.1059197087536 352.4923695414538L1266.1059197087536 341.06725210273515L1327.4705881742523 341.06725210273515Z " fill="#ffffff" transform="matrix(0.6591482471149753,0,0,0.6591482471149752,0,50.494210374876445)"/></g></svg>